<?xml version="1.0" encoding="UTF-8"?>
<svg version="1.1" xmlns="http://www.w3.org/2000/svg" width="229" height="220">
<path d="M0 0 C75.57 0 151.14 0 229 0 C229 72.6 229 145.2 229 220 C153.43 220 77.86 220 0 220 C0 147.4 0 74.8 0 0 Z " fill="#FDD001" transform="translate(0,0)"/>
<path d="M0 0 C75.57 0 151.14 0 229 0 C229 27.39 229 54.78 229 83 C228.01 82.34 227.02 81.68 226 81 C223.33610442 80.58299839 220.73947304 80.27343453 218.05859375 80.03515625 C217.23282333 79.95507828 216.40705292 79.87500031 215.55625916 79.79249573 C212.7049726 79.51900813 209.85263227 79.25905813 207 79 C204.81524129 78.79698795 202.63050923 78.59368891 200.44580078 78.39013672 C192.07478213 77.61489018 183.70240044 76.85472995 175.3293457 76.10180664 C171.73102646 75.7776572 168.1330752 75.4496523 164.53515625 75.12109375 C162.88375389 74.9741935 162.88375389 74.9741935 161.19898987 74.82432556 C160.17949753 74.73075272 159.16000519 74.63717987 158.10961914 74.54077148 C157.21650528 74.46020004 156.32339142 74.3796286 155.4032135 74.2966156 C153.17327951 74.02138695 151.13197668 73.71050486 149 73 C147.72998047 71.07446289 147.72998047 71.07446289 146.6171875 68.47265625 C145.96254517 66.97206665 145.96254517 66.97206665 145.29467773 65.44116211 C144.82618408 64.32620361 144.35769043 63.21124512 143.875 62.0625 C143.37363525 60.90564697 142.87227051 59.74879395 142.35571289 58.55688477 C140.54749575 54.38095268 138.77253132 50.19118063 137 46 C136.24365567 44.21191266 135.48730785 42.42382679 134.73095703 40.63574219 C134.33614136 39.70220413 133.94132568 38.76866608 133.5345459 37.80683899 C131.91063251 33.97128137 130.28104328 30.13814292 128.65167236 26.30490112 C127.44483583 23.45482436 126.25005761 20.59989834 125.05615234 17.74438477 C124.30736008 15.97395443 123.55819108 14.20368337 122.80859375 12.43359375 C122.46840714 11.61079926 122.12822052 10.78800476 121.77772522 9.9402771 C121.45589767 9.18582306 121.13407013 8.43136902 120.80249023 7.65405273 C120.52557846 6.993806 120.24866669 6.33355927 119.96336365 5.65330505 C118.96281549 3.65769132 118.96281549 3.65769132 116 2 C113.44197165 1.90572404 113.44197165 1.90572404 111 3 C109.27029802 5.29602714 109.27029802 5.29602714 108.03417969 8.25976562 C107.27687561 9.89715698 107.27687561 9.89715698 106.50427246 11.56762695 C106.00786255 12.70031006 105.51145264 13.83299316 105 15 C104.53936157 16.03535889 104.07872314 17.07071777 103.60412598 18.13745117 C102.19289414 21.36178965 100.81863556 24.59979899 99.453125 27.84375 C98.955849 29.01587036 98.458573 30.18799072 97.94622803 31.39562988 C96.64233273 34.4703466 95.3415913 37.5463534 94.04266357 40.62316895 C92.20244013 44.98036237 90.35691582 49.33531089 88.51092529 53.69006348 C87.53214179 55.99984711 86.5549078 58.31028813 85.57940674 60.62145996 C85.13844666 61.66354614 84.69748657 62.70563232 84.24316406 63.77929688 C83.85710999 64.69352417 83.47105591 65.60775146 83.07330322 66.54968262 C82.71911316 67.35828735 82.3649231 68.16689209 82 69 C81.68944672 69.75106522 81.37889343 70.50213043 81.05892944 71.2759552 C80 73 80 73 76.81396484 73.80541992 C75.4484387 73.96650823 74.08035268 74.10672241 72.7109375 74.23046875 C71.9748526 74.31122147 71.2387677 74.39197418 70.4803772 74.47517395 C68.11338708 74.73006642 65.74463778 74.95868577 63.375 75.1875 C61.83315887 75.35188747 60.29148873 75.51788708 58.75 75.68554688 C49.99013321 76.61648158 41.23698128 77.2907305 32.43994141 77.74731445 C29.23506576 77.98273293 26.16272248 78.4481341 23 79 C19.61106655 79.21328952 16.2268471 79.38841622 12.83398438 79.51757812 C7.92032294 79.76489442 4.34588816 80.82705592 0 83 C0 55.61 0 28.22 0 0 Z " fill="#FEFEFE" transform="translate(0,0)"/>
<path d="M0 0 C0.33 0.66 0.66 1.32 1 2 C1.56589844 2.26683594 2.13179688 2.53367187 2.71484375 2.80859375 C5.78566506 4.40962024 8.07781087 6.6939593 10.5625 9.0625 C14.41569892 12.67048999 18.31356011 16.13592936 22.4375 19.4375 C26.62238785 22.80347455 30.58302588 26.33186895 34.5 30 C38.54509813 33.78628854 42.64281119 37.43531821 46.9375 40.9375 C47.81792969 41.65808594 48.69835938 42.37867188 49.60546875 43.12109375 C51.89782327 44.97388723 51.89782327 44.97388723 54.05078125 46.34765625 C55.75 47.5 55.75 47.5 58 50 C57.69785128 58.7245444 55.23199269 67.27842253 53.25 75.75 C52.88687438 77.31989127 52.52416532 78.88987895 52.16186523 80.45996094 C49.98237683 89.8840827 47.77508814 99.30249901 45.45996094 108.69433594 C44.38281585 113.11962296 43.56800224 117.47989797 43 122 C62.30960618 123.91125694 74.3341012 116.58647701 89.67675781 106.22509766 C94.53633519 102.97133713 99.50125347 99.90878945 104.5 96.875 C105.31227051 96.36090576 106.12454102 95.84681152 106.96142578 95.31713867 C107.70634277 94.85927979 108.45125977 94.4014209 109.21875 93.9296875 C109.85748047 93.52991699 110.49621094 93.13014648 111.15429688 92.71826172 C113.61087471 91.76227601 114.54658843 92.04765754 117 93 C119.0030246 94.05705806 120.97496631 95.17365351 122.92578125 96.32421875 C123.50141815 96.66258255 124.07705505 97.00094635 124.6701355 97.3495636 C125.9083887 98.07855144 127.14528556 98.80984711 128.38095093 99.54321289 C130.3313182 100.69864826 132.28767289 101.8433483 134.24536133 102.98632812 C140.3944792 106.59006044 146.46443103 110.25448169 152.3984375 114.20703125 C153.87316528 115.16959839 153.87316528 115.16959839 155.37768555 116.15161133 C157.17630614 117.33480331 158.95625607 118.54719838 160.71020508 119.7956543 C168.96892076 125.17585995 177.43638017 124.97899692 187 125 C186.75878418 123.95473145 186.51756836 122.90946289 186.26904297 121.83251953 C186.10802094 121.13472885 185.9469989 120.43693817 185.78109741 119.71800232 C185.41593369 118.1356848 185.05071807 116.55337926 184.68545532 114.97108459 C183.66866263 110.56604049 182.65281131 106.1607827 181.63867188 101.75512695 C179.81189702 93.82305695 177.98123409 85.89238003 176.1015625 77.97265625 C175.68994873 76.22734619 175.68994873 76.22734619 175.27001953 74.44677734 C174.77360736 72.34560344 174.27234469 70.24556669 173.76513672 68.14697266 C173.12803958 65.43873065 172.54815332 62.72750278 172 60 C171.70452271 58.66424927 171.70452271 58.66424927 171.40307617 57.30151367 C170.32886141 51.09603099 170.32886141 51.09603099 172.07861328 48.23852539 C173.72431081 46.60460902 175.42348737 45.28194963 177.3125 43.9375 C178.61815077 42.9205063 179.92283346 41.90226858 181.2265625 40.8828125 C182.19577637 40.15046387 182.19577637 40.15046387 183.18457031 39.40332031 C185.64321823 37.50279473 187.91149047 35.42646355 190.1875 33.3125 C193.52227114 30.28287132 196.93287639 27.39391908 200.4375 24.5625 C204.26455727 21.46851286 207.94280873 18.2716945 211.5625 14.9375 C215.8946917 10.94765104 220.36257695 7.21769991 225.00390625 3.59375 C227.06735955 2.00689443 227.06735955 2.00689443 229 0 C229 43.56 229 87.12 229 132 C153.43 132 77.86 132 0 132 C0 88.44 0 44.88 0 0 Z " fill="#FEFEFD" transform="translate(0,88)"/>
<path d="M0 0 C4.27060618 -0.11589162 8.54080984 -0.18714802 12.8125 -0.25 C14.02744141 -0.28351563 15.24238281 -0.31703125 16.49414062 -0.3515625 C18.23920898 -0.37089844 18.23920898 -0.37089844 20.01953125 -0.390625 C21.62985229 -0.4220459 21.62985229 -0.4220459 23.27270508 -0.45410156 C26 0 26 0 27.86206055 1.85253906 C29.21864085 4.41260779 29.23812131 6.14254432 29 9 C18.52001584 9.72633554 10.62929601 10.18894574 1.7734375 3.7265625 C1.18820313 3.15679687 0.60296875 2.58703125 0 2 C0 1.34 0 0.68 0 0 Z " fill="#F7D528" transform="translate(158,204)"/>
<path d="M0 0 C0.80179688 0.00451172 1.60359375 0.00902344 2.4296875 0.01367188 C4.41149006 0.02546832 6.39325433 0.04340395 8.375 0.0625 C7.375 3.0625 7.375 3.0625 5.51953125 4.73828125 C0.74917929 6.74716239 -3.82186818 6.37764532 -8.9375 6.25 C-9.96423828 6.23646484 -10.99097656 6.22292969 -12.04882812 6.20898438 C-14.57475909 6.17373883 -17.0996066 6.124467 -19.625 6.0625 C-19.295 4.4125 -18.965 2.7625 -18.625 1.0625 C-16.60677083 1.09505208 -14.58854167 1.12760417 -12.5703125 1.16015625 C-8.40410524 0.9510093 -4.41298679 -0.04656561 0 0 Z " fill="#F7DA38" transform="translate(62.625,203.9375)"/>
<path d="M0 0 C7.59 0 15.18 0 23 0 C23 1.65 23 3.3 23 5 C20.10359882 5.08120751 17.20949088 5.14059421 14.3125 5.1875 C13.49587891 5.21263672 12.67925781 5.23777344 11.83789062 5.26367188 C7.09563181 5.32127016 3.802051 5.1980592 0 2 C0 1.34 0 0.68 0 0 Z " fill="#FCE872" transform="translate(164,208)"/>
<path d="M0 0 C0.33 0.66 0.66 1.32 1 2 C7.6 2 14.2 2 21 2 C17.02714441 5.97285559 17.02714441 5.97285559 12.3046875 6.09765625 C10.82809348 6.09100493 9.35151596 6.07907574 7.875 6.0625 C7.12089844 6.05798828 6.36679687 6.05347656 5.58984375 6.04882812 C3.72652873 6.03703499 1.86325445 6.01909942 0 6 C0 4.02 0 2.04 0 0 Z " fill="#FEF093" transform="translate(42,208)"/>
<path d="M0 0 C5.28 0 10.56 0 16 0 C15 4 15 4 14 5 C7.92057494 5.60794251 4.93587149 4.22342628 0 1 C0 0.67 0 0.34 0 0 Z " fill="#FFFAD0" transform="translate(171,213)"/>
<path d="M0 0 C0.33 0.99 0.66 1.98 1 3 C5.95 3 10.9 3 16 3 C11.03403649 6.72447263 9.1810529 7.4337581 3 7 C1.0625 5.75 1.0625 5.75 0 4 C0 2.68 0 1.36 0 0 Z " fill="#FFFBD5" transform="translate(41,211)"/>
<path d="M0 0 C1.48206495 0.254496 2.96068615 0.52911762 4.4375 0.8125 C5.67306641 1.03873047 5.67306641 1.03873047 6.93359375 1.26953125 C7.61550781 1.51058594 8.29742187 1.75164062 9 2 C9.33 2.99 9.66 3.98 10 5 C7.06054016 6.46972992 4.25044564 6 1 6 C0.01 6.495 0.01 6.495 -1 7 C-0.67 4.69 -0.34 2.38 0 0 Z " fill="#F2D604" transform="translate(44,200)"/>
<path d="M0 0 C3.3 0.33 6.6 0.66 10 1 C8 3 8 3 4.375 3.125 C3.26125 3.08375 2.1475 3.0425 1 3 C0.67 2.01 0.34 1.02 0 0 Z " fill="#FEFBE8" transform="translate(43,215)"/>
</svg>
